# xmcd
#
# Track frame offsets:
#	150
#	13643
#	29051
#	42997
#	61711
#	79115
#	94318
#	110587
#	126633
#	144023
#	161807
#	179465
#	194327
#	210240
#
# Disc length: 3011 seconds
#
# Revision: 0
# Processed by: cddbd v1.5.2PL0 Copyright (c) Steve Scherf et al.
# Submitted via: dBpowerAMP V4.0
#
DISCID=c20bc10e
DTITLE=Grupo Sorriso Maroto - É Diferente
DYEAR=2007
DGENRE=Samba
TTITLE0=É Diferente
TTITLE1=Futuro Prometido
TTITLE2=Tenho Medo
TTITLE3=O que é , O que é ?
TTITLE4=Não Foi em Vão
TTITLE5=Pega Essa
TTITLE6=Promessas
TTITLE7=Quem Errou
TTITLE8=Vai Acabar Sem Ninguém
TTITLE9=Meu Plano
TTITLE10=Em Suas Mãos
TTITLE11=O que Tinha que Dar
TTITLE12=Tenho Medo - Acústico
TTITLE13=Acabou
EXTD=
EXTT0=
EXTT1=
EXTT2=
EXTT3=
EXTT4=
EXTT5=
EXTT6=
EXTT7=
EXTT8=
EXTT9=
EXTT10=
EXTT11=
EXTT12=
EXTT13=
PLAYORDER=
